<?xml version="1.0" standalone="no"?>
<!DOCTYPE svg PUBLIC "-//W3C//DTD SVG 1.1//EN" "https://www.w3.org/Graphics/SVG/1.1/DTD/svg11.dtd">

<svg width="800" height="600" version="1.1" xmlns="http://www.w3.org/2000/svg">
	<ellipse stroke="black" stroke-width="1" fill="none" cx="111.5" cy="192.5" rx="30" ry="30"/>
	<text x="106.5" y="198.5" font-family="Times New Roman" font-size="20">0</text>
	<ellipse stroke="black" stroke-width="1" fill="none" cx="226.5" cy="192.5" rx="30" ry="30"/>
	<text x="221.5" y="198.5" font-family="Times New Roman" font-size="20">1</text>
	<ellipse stroke="black" stroke-width="1" fill="none" cx="111.5" cy="295.5" rx="30" ry="30"/>
	<text x="106.5" y="301.5" font-family="Times New Roman" font-size="20">2</text>
	<ellipse stroke="black" stroke-width="1" fill="none" cx="226.5" cy="295.5" rx="30" ry="30"/>
	<text x="221.5" y="301.5" font-family="Times New Roman" font-size="20">3</text>
	<ellipse stroke="black" stroke-width="1" fill="none" cx="357.5" cy="192.5" rx="30" ry="30"/>
	<text x="345.5" y="198.5" font-family="Times New Roman" font-size="20">0,1</text>
	<ellipse stroke="black" stroke-width="1" fill="none" cx="515.5" cy="192.5" rx="30" ry="30"/>
	<polygon stroke="black" stroke-width="1" points="141.5,192.5 196.5,192.5"/>
	<polygon fill="black" stroke-width="1" points="196.5,192.5 188.5,187.5 188.5,197.5"/>
	<text x="157.5" y="183.5" font-family="Times New Roman" font-size="20">a,&#949;</text>
	<path stroke="black" stroke-width="1" fill="none" d="M 121.092,220.839 A 117.399,117.399 0 0 1 121.092,267.161"/>
	<polygon fill="black" stroke-width="1" points="121.092,267.161 127.572,260.304 117.768,258.332"/>
	<text x="128.5" y="250.5" font-family="Times New Roman" font-size="20">a,b</text>
	<path stroke="black" stroke-width="1" fill="none" d="M 243.945,216.615 A 68.919,68.919 0 0 1 243.945,271.385"/>
	<polygon fill="black" stroke-width="1" points="243.945,271.385 251.712,266.03 242.536,262.057"/>
	<text x="254.5" y="250.5" font-family="Times New Roman" font-size="20">a</text>
	<path stroke="black" stroke-width="1" fill="none" d="M 94.567,271.009 A 70.612,70.612 0 0 1 94.567,216.991"/>
	<polygon fill="black" stroke-width="1" points="94.567,216.991 86.887,222.47 96.127,226.295"/>
	<text x="75.5" y="250.5" font-family="Times New Roman" font-size="20">a</text>
	<polygon stroke="black" stroke-width="1" points="141.5,295.5 196.5,295.5"/>
	<polygon fill="black" stroke-width="1" points="196.5,295.5 188.5,290.5 188.5,300.5"/>
	<text x="164.5" y="316.5" font-family="Times New Roman" font-size="20">&#949;</text>
	<polygon stroke="black" stroke-width="1" points="204.153,275.485 133.847,212.515"/>
	<polygon fill="black" stroke-width="1" points="133.847,212.515 136.47,221.577 143.142,214.128"/>
	<text x="174.5" y="235.5" font-family="Times New Roman" font-size="20">b</text>
	<path stroke="black" stroke-width="1" fill="none" d="M 215.167,267.843 A 100.472,100.472 0 0 1 215.167,220.157"/>
	<polygon fill="black" stroke-width="1" points="215.167,220.157 208.412,226.742 218.126,229.115"/>
	<text x="197.5" y="250.5" font-family="Times New Roman" font-size="20">b</text>
	<polygon stroke="black" stroke-width="1" points="64.5,147.5 89.831,171.753"/>
	<polygon fill="black" stroke-width="1" points="89.831,171.753 87.51,162.609 80.594,169.832"/>
	<polygon stroke="black" stroke-width="1" points="314.5,145.5 337.25,170.366"/>
	<polygon fill="black" stroke-width="1" points="337.25,170.366 335.539,161.088 328.16,167.838"/>
	<polygon stroke="black" stroke-width="1" points="387.5,192.5 485.5,192.5"/>
	<polygon fill="black" stroke-width="1" points="485.5,192.5 477.5,187.5 477.5,197.5"/>
	<text x="432.5" y="213.5" font-family="Times New Roman" font-size="20">a</text>
</svg>

