<?xml version="1.0" standalone="no"?>
<!DOCTYPE svg PUBLIC "-//W3C//DTD SVG 1.1//EN" "https://www.w3.org/Graphics/SVG/1.1/DTD/svg11.dtd">

<svg width="800" height="600" version="1.1" xmlns="http://www.w3.org/2000/svg">
	<ellipse stroke="black" stroke-width="1" fill="none" cx="111.5" cy="193.5" rx="30" ry="30"/>
	<text x="105.5" y="199.5" font-family="Times New Roman" font-size="20">0</text>
	<ellipse stroke="black" stroke-width="1" fill="none" cx="251.5" cy="193.5" rx="30" ry="30"/>
	<text x="245.5" y="199.5" font-family="Times New Roman" font-size="20">1</text>
	<ellipse stroke="black" stroke-width="1" fill="none" cx="251.5" cy="193.5" rx="24" ry="24"/>
	<ellipse stroke="black" stroke-width="1" fill="none" cx="111.5" cy="322.5" rx="30" ry="30"/>
	<text x="105.5" y="328.5" font-family="Times New Roman" font-size="20">2</text>
	<ellipse stroke="black" stroke-width="1" fill="none" cx="251.5" cy="322.5" rx="30" ry="30"/>
	<text x="245.5" y="328.5" font-family="Times New Roman" font-size="20">3</text>
	<polygon stroke="black" stroke-width="1" points="69.5,141.5 92.65,170.162"/>
	<polygon fill="black" stroke-width="1" points="92.65,170.162 91.513,160.797 83.733,167.08"/>
	<path stroke="black" stroke-width="1" fill="none" d="M 138.205,179.987 A 126.352,126.352 0 0 1 224.795,179.987"/>
	<polygon fill="black" stroke-width="1" points="224.795,179.987 218.992,172.548 215.566,181.943"/>
	<text x="175.5" y="163.5" font-family="Times New Roman" font-size="20">1</text>
	<path stroke="black" stroke-width="1" fill="none" d="M 225.383,208.096 A 117.674,117.674 0 0 1 137.617,208.096"/>
	<polygon fill="black" stroke-width="1" points="137.617,208.096 143.175,215.719 146.904,206.44"/>
	<text x="175.5" y="237.5" font-family="Times New Roman" font-size="20">1</text>
	<path stroke="black" stroke-width="1" fill="none" d="M 94.66,297.827 A 93.729,93.729 0 0 1 94.66,218.173"/>
	<polygon fill="black" stroke-width="1" points="94.66,297.827 95.787,288.461 86.734,292.71"/>
	<text x="68.5" y="263.5" font-family="Times New Roman" font-size="20">0</text>
	<path stroke="black" stroke-width="1" fill="none" d="M 130.005,216.922 A 86.452,86.452 0 0 1 130.005,299.078"/>
	<polygon fill="black" stroke-width="1" points="130.005,216.922 129.406,226.337 138.205,221.585"/>
	<text x="145.5" y="264.5" font-family="Times New Roman" font-size="20">0</text>
	<path stroke="black" stroke-width="1" fill="none" d="M 274.134,212.873 A 73.671,73.671 0 0 1 274.134,303.127"/>
	<polygon fill="black" stroke-width="1" points="274.134,303.127 282.987,299.866 275.083,293.741"/>
	<text x="294.5" y="263.5" font-family="Times New Roman" font-size="20">0</text>
	<path stroke="black" stroke-width="1" fill="none" d="M 240.851,294.513 A 142.805,142.805 0 0 1 240.851,221.487"/>
	<polygon fill="black" stroke-width="1" points="240.851,221.487 233.971,227.943 243.639,230.5"/>
	<text x="219.5" y="263.5" font-family="Times New Roman" font-size="20">0</text>
	<path stroke="black" stroke-width="1" fill="none" d="M 139.291,311.332 A 151.211,151.211 0 0 1 223.709,311.332"/>
	<polygon fill="black" stroke-width="1" points="223.709,311.332 217.423,304.298 214.631,313.9"/>
	<text x="175.5" y="296.5" font-family="Times New Roman" font-size="20">1</text>
	<path stroke="black" stroke-width="1" fill="none" d="M 228.114,341.091 A 94.879,94.879 0 0 1 134.886,341.091"/>
	<polygon fill="black" stroke-width="1" points="134.886,341.091 139.397,349.377 144.31,340.667"/>
	<text x="175.5" y="374.5" font-family="Times New Roman" font-size="20">1</text>
</svg>

