<?xml version="1.0" standalone="no"?>
<!DOCTYPE svg PUBLIC "-//W3C//DTD SVG 1.1//EN" "https://www.w3.org/Graphics/SVG/1.1/DTD/svg11.dtd">

<svg width="800" height="600" version="1.1" xmlns="http://www.w3.org/2000/svg">
	<ellipse stroke="black" stroke-width="1" fill="none" cx="235.5" cy="243.5" rx="30" ry="30"/>
	<text x="217.5" y="249.5" font-family="Times New Roman" font-size="20">S_a</text>
	<ellipse stroke="black" stroke-width="1" fill="none" cx="348.5" cy="243.5" rx="30" ry="30"/>
	<ellipse stroke="black" stroke-width="1" fill="none" cx="482.5" cy="243.5" rx="30" ry="30"/>
	<text x="464.5" y="249.5" font-family="Times New Roman" font-size="20">F_a</text>
	<ellipse stroke="black" stroke-width="1" fill="none" cx="235.5" cy="359.5" rx="30" ry="30"/>
	<text x="217.5" y="365.5" font-family="Times New Roman" font-size="20">S_b</text>
	<ellipse stroke="black" stroke-width="1" fill="none" cx="348.5" cy="359.5" rx="30" ry="30"/>
	<ellipse stroke="black" stroke-width="1" fill="none" cx="482.5" cy="359.5" rx="30" ry="30"/>
	<text x="464.5" y="365.5" font-family="Times New Roman" font-size="20">F_b</text>
	<ellipse stroke="black" stroke-width="1" fill="none" cx="584.5" cy="295.5" rx="30" ry="30"/>
	<text x="578.5" y="301.5" font-family="Times New Roman" font-size="20">F</text>
	<ellipse stroke="black" stroke-width="1" fill="none" cx="135.5" cy="295.5" rx="30" ry="30"/>
	<text x="129.5" y="301.5" font-family="Times New Roman" font-size="20">S</text>
	<polygon stroke="black" stroke-width="1" points="265.5,243.5 318.5,243.5"/>
	<polygon fill="black" stroke-width="1" points="318.5,243.5 310.5,238.5 310.5,248.5"/>
	<polygon stroke="black" stroke-width="1" points="378.5,243.5 452.5,243.5"/>
	<polygon fill="black" stroke-width="1" points="452.5,243.5 444.5,238.5 444.5,248.5"/>
	<polygon stroke="black" stroke-width="1" points="265.5,359.5 318.5,359.5"/>
	<polygon fill="black" stroke-width="1" points="318.5,359.5 310.5,354.5 310.5,364.5"/>
	<polygon stroke="black" stroke-width="1" points="378.5,359.5 452.5,359.5"/>
	<polygon fill="black" stroke-width="1" points="452.5,359.5 444.5,354.5 444.5,364.5"/>
	<polygon stroke="black" stroke-width="1" points="162.117,281.659 208.883,257.341"/>
	<polygon fill="black" stroke-width="1" points="208.883,257.341 199.479,256.595 204.093,265.467"/>
	<text x="190.5" y="290.5" font-family="Times New Roman" font-size="20">&#949;</text>
	<polygon stroke="black" stroke-width="1" points="160.768,311.672 210.232,343.328"/>
	<polygon fill="black" stroke-width="1" points="210.232,343.328 206.189,334.805 200.798,343.227"/>
	<text x="168.5" y="348.5" font-family="Times New Roman" font-size="20">&#949;</text>
	<polygon stroke="black" stroke-width="1" points="509.227,257.126 557.773,281.874"/>
	<polygon fill="black" stroke-width="1" points="557.773,281.874 552.917,273.786 548.375,282.695"/>
	<text x="516.5" y="290.5" font-family="Times New Roman" font-size="20">&#949;</text>
	<polygon stroke="black" stroke-width="1" points="507.912,343.555 559.088,311.445"/>
	<polygon fill="black" stroke-width="1" points="559.088,311.445 549.654,311.461 554.969,319.932"/>
	<text x="538.5" y="348.5" font-family="Times New Roman" font-size="20">&#949;</text>
	<polygon stroke="black" stroke-width="1" points="55.5,224.5 113.062,275.586"/>
	<polygon fill="black" stroke-width="1" points="113.062,275.586 110.398,266.537 103.76,274.016"/>
</svg>

