<?xml version="1.0" standalone="no"?>
<!DOCTYPE svg PUBLIC "-//W3C//DTD SVG 1.1//EN" "https://www.w3.org/Graphics/SVG/1.1/DTD/svg11.dtd">

<svg width="800" height="600" version="1.1" xmlns="http://www.w3.org/2000/svg">
	<ellipse stroke="black" stroke-width="1" fill="none" cx="235.5" cy="243.5" rx="30" ry="30"/>
	<text x="217.5" y="249.5" font-family="Times New Roman" font-size="20">S_a</text>
	<ellipse stroke="black" stroke-width="1" fill="none" cx="348.5" cy="243.5" rx="30" ry="30"/>
	<ellipse stroke="black" stroke-width="1" fill="none" cx="481.5" cy="239.5" rx="30" ry="30"/>
	<text x="463.5" y="245.5" font-family="Times New Roman" font-size="20">F_a</text>
	<ellipse stroke="black" stroke-width="1" fill="none" cx="611.5" cy="239.5" rx="30" ry="30"/>
	<text x="605.5" y="245.5" font-family="Times New Roman" font-size="20">F</text>
	<ellipse stroke="black" stroke-width="1" fill="none" cx="611.5" cy="239.5" rx="24" ry="24"/>
	<ellipse stroke="black" stroke-width="1" fill="none" cx="127.5" cy="239.5" rx="30" ry="30"/>
	<text x="121.5" y="245.5" font-family="Times New Roman" font-size="20">S</text>
	<polygon stroke="black" stroke-width="1" points="265.5,243.5 318.5,243.5"/>
	<polygon fill="black" stroke-width="1" points="318.5,243.5 310.5,238.5 310.5,248.5"/>
	<polygon stroke="black" stroke-width="1" points="378.486,242.598 451.514,240.402"/>
	<polygon fill="black" stroke-width="1" points="451.514,240.402 443.367,235.645 443.667,245.64"/>
	<polygon stroke="black" stroke-width="1" points="69.5,185.5 105.543,219.057"/>
	<polygon fill="black" stroke-width="1" points="105.543,219.057 103.095,209.947 96.281,217.266"/>
	<polygon stroke="black" stroke-width="1" points="157.479,240.61 205.521,242.39"/>
	<polygon fill="black" stroke-width="1" points="205.521,242.39 197.711,237.097 197.341,247.09"/>
	<text x="175.5" y="262.5" font-family="Times New Roman" font-size="20">&#949;</text>
	<polygon stroke="black" stroke-width="1" points="511.5,239.5 581.5,239.5"/>
	<polygon fill="black" stroke-width="1" points="581.5,239.5 573.5,234.5 573.5,244.5"/>
	<text x="540.5" y="260.5" font-family="Times New Roman" font-size="20">&#949;</text>
	<path stroke="black" stroke-width="1" fill="none" d="M 585.408,254.294 A 464.432,464.432 0 0 1 153.592,254.294"/>
	<polygon fill="black" stroke-width="1" points="585.408,254.294 576,253.587 580.649,262.44"/>
	<text x="363.5" y="328.5" font-family="Times New Roman" font-size="20">&#949;</text>
	<path stroke="black" stroke-width="1" fill="none" d="M 153.293,224.19 A 449.098,449.098 0 0 1 585.707,224.19"/>
	<polygon fill="black" stroke-width="1" points="153.293,224.19 162.712,224.721 157.898,215.956"/>
	<text x="363.5" y="159.5" font-family="Times New Roman" font-size="20">&#949;</text>
</svg>

